<svg id="svg" xmlns="http://www.w3.org/2000/svg" xmlns:xlink="http://www.w3.org/1999/xlink" width="400" height="165.3631284916201" viewBox="0, 0, 400,165.3631284916201"><g id="svgg"><path id="path0" d="M197.426 1.255 C 197.249 1.390,196.930 1.500,196.718 1.500 L 196.333 1.500 196.333 82.876 L 196.333 164.252 196.792 164.448 C 197.044 164.556,197.700 164.694,198.250 164.756 C 198.800 164.818,199.468 164.973,199.734 165.101 C 200.315 165.380,203.013 165.420,203.280 165.154 C 203.379 165.055,204.007 164.905,204.676 164.821 C 205.345 164.737,206.104 164.575,206.363 164.460 L 206.833 164.252 206.833 82.876 C 206.833 3.375,206.826 1.500,206.520 1.500 C 206.348 1.500,205.938 1.387,205.609 1.250 C 204.746 0.889,197.904 0.894,197.426 1.255 M240.167 56.500 L 240.167 62.500 240.641 62.500 C 241.137 62.500,241.667 62.061,241.667 61.651 C 241.667 61.279,242.483 60.167,242.756 60.167 C 242.890 60.167,243.000 60.104,243.000 60.028 C 243.000 59.313,267.296 58.962,268.000 59.667 C 268.420 60.087,268.461 115.272,268.042 115.692 C 267.927 115.806,267.833 116.039,267.833 116.208 C 267.833 116.793,266.092 118.167,265.350 118.167 C 265.249 118.167,265.167 118.430,265.167 118.752 L 265.167 119.337 271.792 119.294 L 278.417 119.250 278.466 118.744 C 278.511 118.290,278.442 118.206,277.800 117.926 C 276.080 117.177,275.764 116.645,275.513 114.073 C 275.130 110.146,275.291 60.108,275.689 59.682 C 276.153 59.183,297.760 59.132,299.639 59.625 C 300.982 59.978,302.076 60.928,302.258 61.902 C 302.361 62.449,302.419 62.500,302.935 62.500 L 303.500 62.500 303.500 56.593 C 303.500 52.623,303.442 50.651,303.324 50.577 C 303.022 50.391,302.333 50.655,302.333 50.958 C 302.333 51.885,300.992 53.150,299.750 53.395 C 298.770 53.587,245.193 53.614,243.954 53.422 C 243.123 53.294,241.667 52.111,241.667 51.564 C 241.667 51.053,241.137 50.500,240.647 50.500 L 240.167 50.500 240.167 56.500 M4.239 53.387 C 3.970 53.691,3.418 54.385,3.012 54.928 C 2.606 55.472,2.099 56.082,1.887 56.284 C 1.674 56.486,1.500 56.711,1.500 56.785 C 1.500 56.859,1.312 57.122,1.083 57.369 C 0.854 57.617,0.667 57.937,0.667 58.082 C 0.667 58.357,1.571 59.333,1.825 59.333 C 1.906 59.333,1.997 59.390,2.028 59.458 C 2.058 59.527,2.533 59.957,3.083 60.413 C 3.633 60.869,4.121 61.284,4.167 61.334 C 4.212 61.384,4.585 61.686,4.994 62.004 C 5.404 62.323,5.936 62.771,6.177 63.000 C 6.713 63.510,7.190 63.908,8.167 64.661 C 8.579 64.978,9.082 65.409,9.284 65.619 C 9.486 65.829,9.723 66.000,9.811 66.000 C 9.900 66.000,9.997 66.056,10.028 66.125 C 10.058 66.194,10.421 66.522,10.833 66.855 C 11.246 67.187,11.870 67.731,12.220 68.063 C 12.570 68.395,12.896 68.667,12.945 68.667 C 13.016 68.667,15.050 70.373,15.333 70.671 C 15.379 70.719,15.754 71.013,16.167 71.325 C 16.579 71.636,16.992 71.975,17.083 72.078 C 17.175 72.181,17.887 72.780,18.667 73.410 C 19.446 74.041,20.205 74.675,20.355 74.820 C 20.674 75.130,21.090 75.478,22.333 76.475 C 22.837 76.879,23.325 77.295,23.417 77.399 C 23.508 77.503,23.921 77.848,24.333 78.165 C 24.746 78.482,25.121 78.787,25.167 78.842 C 25.212 78.897,25.887 79.463,26.667 80.099 C 27.979 81.169,28.770 81.834,29.231 82.252 C 29.333 82.345,29.754 82.680,30.167 82.996 C 30.579 83.313,31.067 83.725,31.250 83.914 C 31.433 84.102,31.865 84.470,32.208 84.731 C 33.030 85.356,33.032 85.833,32.214 86.450 C 31.873 86.707,31.472 87.029,31.322 87.167 C 31.026 87.439,30.726 87.688,29.333 88.816 C 28.829 89.225,28.379 89.605,28.333 89.662 C 28.287 89.718,27.575 90.320,26.750 91.000 C 25.925 91.680,25.212 92.283,25.167 92.342 C 25.121 92.400,24.708 92.731,24.250 93.077 C 23.792 93.424,23.379 93.760,23.333 93.824 C 23.287 93.888,22.803 94.302,22.256 94.744 C 21.709 95.186,21.176 95.631,21.071 95.732 C 20.966 95.834,20.598 96.142,20.253 96.417 C 19.909 96.692,19.456 97.067,19.248 97.250 C 19.039 97.433,18.547 97.846,18.155 98.167 C 17.763 98.487,17.322 98.862,17.176 99.000 C 17.030 99.138,16.575 99.511,16.164 99.831 C 15.753 100.150,15.334 100.488,15.233 100.581 C 14.891 100.895,13.450 102.082,13.156 102.290 C 12.995 102.404,12.539 102.806,12.140 103.183 C 11.742 103.560,11.004 104.177,10.500 104.556 C 9.996 104.934,9.433 105.395,9.250 105.580 C 9.067 105.765,8.579 106.179,8.167 106.500 C 7.250 107.214,6.858 107.547,5.864 108.458 C 5.438 108.848,5.035 109.167,4.968 109.167 C 4.900 109.167,4.630 109.373,4.368 109.625 C 4.105 109.877,3.527 110.383,3.082 110.750 C 2.638 111.117,2.180 111.510,2.066 111.625 C 1.951 111.740,1.820 111.833,1.774 111.833 C 0.907 111.833,0.466 113.289,1.147 113.901 C 1.341 114.075,1.500 114.279,1.500 114.353 C 1.500 114.428,1.706 114.705,1.958 114.969 C 2.210 115.234,2.927 116.099,3.551 116.892 C 4.704 118.356,4.963 118.530,5.333 118.083 C 5.447 117.946,5.607 117.833,5.687 117.833 C 5.768 117.833,5.972 117.702,6.142 117.542 C 6.779 116.940,8.310 115.631,8.680 115.372 C 8.891 115.224,9.188 114.987,9.340 114.843 C 9.631 114.570,9.845 114.391,11.333 113.181 C 11.838 112.772,12.325 112.349,12.417 112.242 C 12.508 112.135,13.221 111.536,14.000 110.911 C 14.779 110.286,15.685 109.544,16.012 109.262 C 16.340 108.981,17.012 108.412,17.505 108.000 C 17.999 107.587,18.716 106.987,19.098 106.667 C 19.481 106.346,20.077 105.858,20.423 105.583 C 20.769 105.308,21.322 104.840,21.651 104.542 C 21.981 104.245,22.302 104.001,22.365 104.001 C 22.429 104.000,22.808 103.681,23.208 103.292 C 23.899 102.619,24.287 102.291,25.525 101.333 C 25.822 101.104,26.406 100.600,26.824 100.213 C 27.242 99.826,27.637 99.507,27.703 99.505 C 27.768 99.502,28.041 99.294,28.309 99.042 C 29.194 98.208,29.742 97.739,30.414 97.242 C 30.780 96.971,31.230 96.597,31.414 96.411 C 31.599 96.224,32.087 95.812,32.499 95.494 C 33.477 94.741,33.954 94.343,34.490 93.833 C 34.731 93.604,35.263 93.155,35.672 92.836 C 36.082 92.516,36.499 92.179,36.599 92.086 C 36.699 91.993,37.140 91.617,37.578 91.250 C 38.017 90.883,38.473 90.490,38.592 90.375 C 38.712 90.260,38.856 90.167,38.913 90.167 C 38.969 90.167,39.181 89.994,39.383 89.782 C 39.585 89.570,40.031 89.186,40.375 88.929 L 41.000 88.460 41.000 85.583 L 41.000 82.706 40.375 82.238 C 40.031 81.980,39.600 81.613,39.417 81.422 C 39.233 81.232,38.926 80.965,38.735 80.829 C 38.398 80.592,36.978 79.429,36.600 79.081 C 36.499 78.988,36.082 78.650,35.672 78.331 C 35.263 78.011,34.731 77.563,34.490 77.333 C 33.954 76.824,33.477 76.425,32.499 75.673 C 32.087 75.355,31.600 74.943,31.417 74.756 C 31.233 74.569,30.746 74.154,30.334 73.833 C 29.310 73.036,28.863 72.661,28.314 72.137 C 28.057 71.891,27.742 71.629,27.614 71.554 C 27.417 71.438,26.050 70.303,25.437 69.748 C 25.334 69.655,24.912 69.320,24.500 69.004 C 24.087 68.687,23.585 68.257,23.383 68.048 C 23.181 67.838,22.975 67.667,22.925 67.667 C 22.874 67.667,22.697 67.535,22.529 67.375 C 21.737 66.615,20.839 65.833,20.757 65.833 C 20.707 65.833,20.530 65.702,20.363 65.542 C 20.195 65.381,19.737 64.987,19.344 64.667 C 18.951 64.346,18.484 63.959,18.307 63.807 C 18.129 63.655,17.672 63.280,17.291 62.973 C 16.910 62.667,16.480 62.304,16.334 62.167 C 16.189 62.029,15.735 61.644,15.327 61.310 C 14.918 60.977,14.403 60.546,14.183 60.352 C 13.963 60.158,13.737 60.000,13.681 60.000 C 13.625 60.000,13.281 59.713,12.915 59.362 C 12.549 59.012,11.838 58.391,11.333 57.982 C 9.960 56.870,9.643 56.608,9.343 56.333 C 9.193 56.196,8.703 55.786,8.255 55.423 C 7.807 55.059,7.248 54.589,7.012 54.378 C 5.079 52.644,4.939 52.594,4.239 53.387 M31.829 53.126 C 31.694 53.286,31.321 53.755,31.000 54.167 C 30.271 55.102,29.825 55.638,29.487 55.982 C 29.343 56.129,28.974 56.606,28.668 57.042 C 28.361 57.477,28.048 57.833,27.972 57.833 C 27.728 57.833,27.824 58.251,28.126 58.505 C 28.286 58.640,28.755 59.012,29.167 59.333 C 30.153 60.102,30.593 60.472,31.297 61.125 C 31.617 61.423,31.926 61.667,31.982 61.668 C 32.038 61.669,32.483 62.044,32.971 62.501 C 33.460 62.959,33.922 63.333,33.999 63.333 C 34.076 63.333,34.164 63.390,34.194 63.460 C 34.225 63.529,34.587 63.848,35.000 64.168 C 35.412 64.488,35.900 64.903,36.083 65.089 C 36.267 65.276,36.754 65.687,37.167 66.003 C 37.579 66.319,38.113 66.766,38.353 66.997 C 38.888 67.511,39.359 67.908,40.334 68.667 C 40.746 68.987,41.242 69.419,41.436 69.625 C 41.630 69.831,41.873 70.000,41.977 70.000 C 42.082 70.000,42.167 70.062,42.167 70.138 C 42.167 70.215,42.485 70.508,42.875 70.791 C 43.265 71.074,43.908 71.612,44.306 71.986 C 44.703 72.360,45.066 72.667,45.113 72.667 C 45.184 72.667,47.221 74.378,47.500 74.671 C 47.546 74.719,47.920 75.019,48.330 75.338 C 48.741 75.656,49.200 76.029,49.351 76.167 C 49.501 76.304,49.947 76.679,50.341 77.000 C 50.736 77.321,51.228 77.733,51.434 77.917 C 51.641 78.100,52.089 78.475,52.428 78.750 C 52.768 79.025,53.130 79.327,53.232 79.420 C 53.333 79.514,53.792 79.888,54.250 80.251 C 54.708 80.615,55.234 81.063,55.419 81.248 C 55.604 81.432,56.041 81.798,56.391 82.060 C 56.740 82.323,57.231 82.735,57.480 82.977 C 57.730 83.219,58.345 83.732,58.847 84.117 C 59.350 84.503,59.930 84.998,60.138 85.219 L 60.514 85.620 59.581 86.426 C 59.067 86.870,58.495 87.339,58.310 87.469 C 58.124 87.599,57.760 87.913,57.500 88.167 C 57.239 88.421,56.739 88.844,56.388 89.106 C 56.037 89.369,55.675 89.666,55.583 89.768 C 55.492 89.869,54.809 90.444,54.066 91.045 C 53.323 91.646,52.498 92.341,52.232 92.588 C 51.967 92.836,51.300 93.382,50.750 93.802 C 50.200 94.222,49.600 94.720,49.417 94.908 C 49.233 95.096,48.746 95.511,48.333 95.831 C 47.921 96.150,47.488 96.503,47.371 96.615 C 47.254 96.726,46.804 97.103,46.371 97.451 C 45.938 97.799,45.523 98.177,45.450 98.292 C 45.377 98.406,45.248 98.500,45.164 98.500 C 45.080 98.500,44.796 98.706,44.532 98.958 C 43.958 99.506,43.500 99.890,42.499 100.661 C 42.087 100.978,41.600 101.391,41.417 101.577 C 41.233 101.764,40.746 102.176,40.333 102.494 C 39.921 102.812,39.418 103.243,39.216 103.452 C 39.014 103.662,38.821 103.833,38.786 103.833 C 38.751 103.833,38.397 104.133,38.000 104.500 C 37.603 104.867,37.222 105.167,37.153 105.167 C 37.084 105.167,36.703 105.474,36.306 105.851 C 35.908 106.227,35.176 106.846,34.677 107.226 C 34.179 107.606,33.354 108.309,32.844 108.789 C 32.334 109.269,31.857 109.663,31.784 109.664 C 31.711 109.666,31.486 109.837,31.284 110.044 C 31.082 110.252,30.356 110.871,29.671 111.419 C 28.986 111.968,28.292 112.527,28.129 112.662 C 27.820 112.919,27.728 113.333,27.980 113.333 C 28.060 113.333,28.410 113.746,28.757 114.250 C 29.105 114.754,29.451 115.167,29.528 115.167 C 29.604 115.167,29.667 115.279,29.667 115.417 C 29.667 115.554,29.737 115.667,29.824 115.667 C 29.910 115.667,30.339 116.135,30.778 116.708 C 32.229 118.604,32.247 118.611,33.333 117.655 C 33.654 117.372,34.412 116.739,35.018 116.249 C 35.624 115.758,36.224 115.257,36.351 115.134 C 36.479 115.012,36.920 114.650,37.330 114.331 C 37.741 114.011,38.197 113.638,38.342 113.500 C 38.900 112.974,39.779 112.226,40.497 111.666 C 40.908 111.345,41.365 110.971,41.514 110.833 C 41.789 110.578,41.918 110.470,43.469 109.203 C 43.956 108.805,44.487 108.353,44.648 108.198 C 45.023 107.840,45.555 107.401,46.501 106.671 C 46.913 106.353,47.288 106.053,47.333 106.004 C 47.513 105.815,48.800 104.720,49.492 104.167 C 49.893 103.846,50.303 103.507,50.402 103.414 C 50.502 103.321,50.918 102.984,51.328 102.664 C 51.737 102.345,52.269 101.896,52.510 101.667 C 53.042 101.161,53.516 100.765,54.501 100.004 C 54.913 99.686,55.288 99.384,55.333 99.334 C 55.409 99.251,56.775 98.102,57.810 97.250 C 58.033 97.067,58.561 96.600,58.983 96.213 C 59.405 95.826,59.804 95.507,59.869 95.505 C 59.935 95.502,60.203 95.294,60.465 95.042 C 60.726 94.790,61.301 94.283,61.741 93.917 C 62.182 93.550,62.640 93.156,62.759 93.042 C 62.879 92.927,63.013 92.833,63.058 92.833 C 63.104 92.833,63.540 92.459,64.029 92.001 C 64.517 91.544,64.967 91.169,65.029 91.168 C 65.091 91.167,65.366 90.942,65.641 90.667 C 65.916 90.392,66.178 90.167,66.224 90.167 C 66.301 90.167,67.380 89.248,68.007 88.648 C 68.247 88.418,68.290 87.978,68.300 85.596 C 68.314 82.470,68.464 82.876,66.760 81.417 C 66.225 80.958,65.704 80.505,65.602 80.410 C 65.500 80.314,65.260 80.127,65.068 79.993 C 64.745 79.768,63.611 78.838,62.771 78.109 C 62.576 77.940,62.085 77.528,61.680 77.192 C 61.275 76.857,60.734 76.382,60.478 76.137 C 60.222 75.891,59.908 75.629,59.781 75.554 C 59.584 75.438,58.217 74.303,57.603 73.748 C 57.501 73.655,57.079 73.317,56.667 72.998 C 56.254 72.678,55.758 72.248,55.564 72.042 C 55.370 71.835,55.164 71.667,55.106 71.667 C 55.048 71.667,54.865 71.535,54.701 71.375 C 54.536 71.215,54.072 70.821,53.669 70.500 C 53.267 70.179,52.733 69.719,52.483 69.477 C 52.232 69.236,51.883 68.936,51.707 68.811 C 51.237 68.478,49.882 67.333,49.218 66.708 C 48.902 66.410,48.592 66.166,48.530 66.165 C 48.468 66.165,48.017 65.790,47.529 65.332 C 47.040 64.874,46.578 64.500,46.501 64.500 C 46.424 64.500,46.336 64.443,46.306 64.374 C 46.275 64.304,45.913 63.990,45.500 63.675 C 45.087 63.359,44.628 62.985,44.479 62.843 C 44.175 62.552,43.831 62.263,42.500 61.181 C 41.996 60.772,41.508 60.351,41.417 60.247 C 41.325 60.143,40.912 59.803,40.500 59.492 C 40.087 59.180,39.712 58.884,39.667 58.834 C 39.621 58.784,39.134 58.369,38.585 57.913 C 38.036 57.457,37.060 56.633,36.416 56.083 C 35.772 55.533,34.880 54.783,34.434 54.417 C 33.988 54.050,33.389 53.545,33.103 53.294 C 32.497 52.763,32.169 52.720,31.829 53.126 M367.166 53.458 C 367.166 53.527,366.360 54.242,365.375 55.047 C 363.256 56.778,361.938 57.876,361.250 58.481 C 360.975 58.722,360.375 59.219,359.917 59.585 C 359.459 59.951,359.000 60.325,358.898 60.417 C 358.796 60.508,358.390 60.846,357.997 61.167 C 357.603 61.487,357.110 61.900,356.900 62.083 C 356.690 62.267,356.204 62.679,355.820 63.000 C 355.435 63.321,354.887 63.788,354.602 64.039 C 354.317 64.290,354.027 64.496,353.958 64.497 C 353.890 64.499,353.551 64.781,353.205 65.125 C 352.860 65.469,352.241 66.011,351.830 66.329 C 351.420 66.647,351.046 66.947,351.000 66.996 C 350.703 67.308,348.681 69.000,348.605 69.000 C 348.554 69.000,348.298 69.206,348.037 69.458 C 347.776 69.710,347.233 70.179,346.831 70.500 C 346.428 70.821,345.964 71.215,345.799 71.375 C 345.635 71.535,345.452 71.667,345.394 71.667 C 345.336 71.667,345.130 71.835,344.936 72.042 C 344.742 72.248,344.246 72.679,343.834 73.000 C 342.828 73.783,342.366 74.170,341.843 74.667 C 341.603 74.896,341.070 75.345,340.661 75.664 C 340.252 75.984,339.834 76.321,339.733 76.414 C 339.632 76.507,339.187 76.883,338.745 77.250 C 338.303 77.617,337.847 78.010,337.732 78.125 C 337.618 78.240,337.484 78.333,337.434 78.333 C 337.385 78.333,337.130 78.540,336.868 78.792 C 336.329 79.309,334.953 80.461,334.442 80.823 C 334.256 80.955,333.986 81.180,333.841 81.323 C 333.697 81.466,333.208 81.883,332.755 82.250 C 331.218 83.493,331.333 83.154,331.333 86.417 C 331.333 88.021,331.398 89.333,331.477 89.333 C 331.556 89.333,331.800 89.504,332.019 89.712 C 332.238 89.921,332.960 90.530,333.625 91.065 C 334.290 91.600,334.833 92.104,334.833 92.186 C 334.833 92.267,334.927 92.336,335.042 92.338 C 335.156 92.341,335.969 92.960,336.847 93.713 C 337.726 94.467,338.806 95.383,339.248 95.750 C 339.690 96.117,340.134 96.493,340.234 96.586 C 340.335 96.679,340.754 97.015,341.167 97.333 C 341.579 97.651,342.113 98.100,342.353 98.331 C 342.901 98.857,343.383 99.261,344.334 99.994 C 344.746 100.312,345.249 100.743,345.450 100.952 C 345.652 101.162,345.864 101.333,345.921 101.333 C 345.977 101.333,346.118 101.427,346.232 101.542 C 346.347 101.656,346.805 102.050,347.249 102.417 C 347.693 102.783,348.272 103.290,348.534 103.542 C 348.797 103.794,349.065 104.002,349.131 104.005 C 349.196 104.007,349.595 104.326,350.017 104.713 C 350.932 105.552,351.340 105.895,352.334 106.661 C 352.746 106.978,353.249 107.409,353.450 107.619 C 353.652 107.829,353.896 108.000,353.992 108.000 C 354.088 108.000,354.167 108.062,354.167 108.138 C 354.167 108.215,354.485 108.508,354.875 108.791 C 355.265 109.073,355.899 109.611,356.285 109.986 C 356.671 110.360,357.046 110.669,357.119 110.671 C 357.191 110.674,357.593 110.993,358.012 111.380 C 358.430 111.767,359.099 112.346,359.498 112.667 C 360.442 113.427,361.267 114.139,361.864 114.708 C 362.129 114.960,362.398 115.168,362.464 115.169 C 362.530 115.171,362.846 115.401,363.167 115.681 C 367.471 119.441,367.416 119.407,367.955 118.624 C 368.159 118.327,368.520 117.858,368.756 117.583 C 369.531 116.682,369.743 116.425,370.331 115.666 C 370.650 115.254,370.998 114.842,371.103 114.750 C 372.088 113.891,371.942 113.640,369.163 111.423 C 368.477 110.876,367.795 110.313,367.645 110.173 C 367.350 109.893,367.038 109.632,365.698 108.536 C 365.211 108.138,364.679 107.686,364.515 107.531 C 364.198 107.233,363.955 107.030,362.500 105.850 C 361.996 105.442,361.546 105.063,361.500 105.008 C 361.454 104.953,361.079 104.653,360.667 104.342 C 360.254 104.030,359.842 103.692,359.750 103.591 C 359.658 103.489,358.908 102.848,358.083 102.165 C 357.258 101.483,356.396 100.747,356.167 100.531 C 355.938 100.315,355.488 99.964,355.167 99.752 C 354.846 99.540,354.268 99.068,353.882 98.703 C 353.496 98.338,352.859 97.788,352.465 97.481 C 352.072 97.174,351.551 96.734,351.309 96.503 C 351.066 96.272,350.624 95.896,350.328 95.667 C 349.669 95.158,348.534 94.219,347.500 93.328 C 347.271 93.130,346.753 92.694,346.350 92.359 C 345.947 92.024,345.535 91.675,345.434 91.583 C 345.333 91.492,344.963 91.202,344.612 90.940 C 344.261 90.677,343.752 90.246,343.481 89.981 C 343.210 89.717,342.922 89.500,342.841 89.500 C 342.761 89.500,342.669 89.444,342.639 89.375 C 342.608 89.306,342.133 88.878,341.583 88.422 C 341.033 87.967,340.418 87.423,340.216 87.214 C 340.014 87.005,339.771 86.833,339.675 86.833 C 339.387 86.833,339.478 85.926,339.792 85.662 C 339.953 85.527,340.420 85.154,340.831 84.833 C 341.242 84.512,341.700 84.137,341.849 84.000 C 342.511 83.390,344.081 82.062,344.400 81.841 C 344.593 81.708,344.825 81.512,344.917 81.407 C 345.008 81.301,345.683 80.728,346.417 80.134 C 347.150 79.540,347.938 78.895,348.167 78.701 C 348.396 78.507,349.146 77.876,349.833 77.300 C 350.521 76.723,351.158 76.170,351.250 76.071 C 351.342 75.972,351.754 75.635,352.167 75.322 C 352.579 75.009,353.067 74.614,353.250 74.443 C 353.433 74.273,354.033 73.787,354.583 73.362 C 355.133 72.938,355.958 72.233,356.417 71.795 C 356.875 71.358,357.301 71.000,357.363 71.000 C 357.425 71.000,357.763 70.736,358.113 70.413 C 359.093 69.510,359.358 69.284,360.166 68.661 C 361.072 67.963,361.465 67.631,362.475 66.712 C 362.901 66.324,363.304 66.006,363.369 66.004 C 363.435 66.002,363.704 65.794,363.968 65.542 C 364.518 65.017,364.946 64.656,365.995 63.833 C 366.404 63.512,366.941 63.052,367.189 62.810 C 367.437 62.568,367.926 62.156,368.276 61.894 C 368.626 61.631,369.072 61.248,369.267 61.042 C 369.462 60.835,369.667 60.667,369.722 60.667 C 369.777 60.667,370.038 60.460,370.303 60.208 C 370.568 59.956,370.951 59.637,371.156 59.500 C 371.773 59.085,371.864 58.754,371.485 58.312 C 371.299 58.094,370.993 57.739,370.806 57.521 C 370.619 57.303,370.228 56.816,369.938 56.438 C 369.378 55.709,369.080 55.351,368.208 54.364 C 367.911 54.026,367.667 53.656,367.667 53.542 C 367.667 53.427,367.554 53.333,367.417 53.333 C 367.279 53.333,367.166 53.390,367.166 53.458 M394.176 53.799 C 393.860 54.047,393.398 54.448,393.148 54.690 C 392.898 54.932,392.410 55.344,392.064 55.606 C 391.717 55.869,391.243 56.261,391.009 56.478 C 390.775 56.695,390.133 57.219,389.583 57.642 C 389.033 58.066,388.391 58.601,388.157 58.831 C 387.923 59.062,387.404 59.512,387.005 59.833 C 386.054 60.597,383.463 62.759,381.340 64.558 C 379.937 65.748,379.831 65.833,379.754 65.833 C 379.713 65.833,379.460 66.040,379.194 66.292 C 378.579 66.874,377.649 67.667,377.579 67.667 C 377.550 67.667,377.126 68.042,376.638 68.500 C 376.150 68.958,375.619 69.376,375.458 69.428 C 375.298 69.480,375.167 69.592,375.167 69.678 C 375.167 69.763,375.088 69.833,374.992 69.833 C 374.896 69.833,374.652 70.005,374.450 70.214 C 374.249 70.423,373.633 70.966,373.083 71.421 C 372.533 71.875,371.933 72.398,371.750 72.582 C 371.567 72.766,371.079 73.179,370.667 73.499 C 370.254 73.819,369.892 74.138,369.861 74.207 C 369.831 74.277,369.739 74.333,369.659 74.333 C 369.578 74.333,369.299 74.540,369.039 74.792 C 368.779 75.044,368.318 75.438,368.015 75.667 C 367.712 75.896,367.244 76.290,366.976 76.542 C 366.708 76.794,366.450 77.000,366.403 77.000 C 366.356 77.000,366.152 77.171,365.950 77.381 C 365.749 77.591,365.246 78.022,364.834 78.339 C 364.024 78.963,363.402 79.475,363.097 79.768 C 362.991 79.869,362.469 80.307,361.938 80.740 C 360.922 81.567,360.528 81.902,359.527 82.792 C 359.191 83.089,358.860 83.333,358.792 83.333 C 358.723 83.333,358.667 84.641,358.667 86.240 L 358.667 89.147 359.625 89.887 C 360.152 90.295,360.808 90.838,361.083 91.095 C 361.358 91.352,361.982 91.888,362.469 92.285 C 362.956 92.681,363.518 93.162,363.719 93.353 C 363.919 93.544,364.533 94.044,365.083 94.466 C 365.633 94.887,366.249 95.405,366.450 95.616 C 366.652 95.827,366.862 96.000,366.916 96.000 C 366.970 96.000,367.293 96.256,367.632 96.570 C 367.972 96.883,368.475 97.311,368.750 97.521 C 369.025 97.731,369.400 98.057,369.583 98.247 C 369.767 98.436,370.074 98.702,370.265 98.837 C 370.595 99.070,372.003 100.222,372.400 100.584 C 372.501 100.676,373.052 101.126,373.624 101.584 C 374.197 102.042,374.666 102.473,374.666 102.542 C 374.666 102.610,374.747 102.667,374.846 102.667 C 374.945 102.667,375.239 102.873,375.499 103.125 C 375.759 103.377,376.218 103.771,376.519 104.000 C 376.820 104.229,377.260 104.604,377.497 104.833 C 377.734 105.063,378.263 105.511,378.672 105.831 C 379.082 106.150,379.498 106.488,379.598 106.581 C 379.697 106.674,380.107 107.013,380.508 107.333 C 381.493 108.120,382.505 109.000,382.950 109.457 C 383.152 109.664,383.359 109.833,383.410 109.833 C 383.495 109.833,384.244 110.457,384.761 110.958 C 384.879 111.073,385.023 111.167,385.079 111.167 C 385.136 111.167,385.348 111.338,385.550 111.548 C 385.751 111.757,386.254 112.186,386.667 112.500 C 387.079 112.814,387.582 113.243,387.784 113.452 C 387.986 113.662,388.189 113.833,388.236 113.833 C 388.283 113.833,388.541 114.040,388.809 114.292 C 389.078 114.544,389.545 114.938,389.848 115.167 C 390.152 115.396,390.613 115.790,390.872 116.042 C 391.132 116.294,391.411 116.500,391.492 116.500 C 391.573 116.500,391.664 116.557,391.694 116.626 C 391.725 116.696,392.086 117.014,392.497 117.335 C 392.908 117.655,393.527 118.198,393.872 118.542 C 394.704 119.370,394.769 119.351,395.833 117.968 C 396.337 117.314,396.956 116.563,397.208 116.300 C 397.460 116.037,397.667 115.787,397.667 115.746 C 397.667 115.662,398.242 114.958,398.708 114.471 C 398.869 114.304,399.000 114.092,399.000 114.000 C 399.000 113.908,399.085 113.833,399.190 113.833 C 399.391 113.833,398.566 113.030,397.649 112.333 C 397.347 112.104,396.887 111.710,396.628 111.458 C 396.368 111.206,396.127 111.000,396.092 111.000 C 396.057 111.000,395.853 110.853,395.639 110.673 C 395.425 110.494,394.462 109.684,393.500 108.875 C 392.537 108.065,391.113 106.887,390.333 106.257 C 389.554 105.626,388.795 104.992,388.645 104.847 C 388.326 104.536,387.910 104.189,386.667 103.192 C 386.162 102.788,385.675 102.369,385.583 102.262 C 385.492 102.156,385.260 101.959,385.068 101.826 C 384.744 101.600,383.351 100.463,382.934 100.083 C 382.833 99.991,382.337 99.582,381.833 99.175 C 381.329 98.769,380.715 98.225,380.468 97.968 C 380.221 97.711,379.946 97.500,379.857 97.500 C 379.767 97.500,379.669 97.444,379.639 97.375 C 379.608 97.306,379.209 96.950,378.752 96.583 C 378.295 96.217,377.806 95.804,377.666 95.667 C 377.526 95.529,377.075 95.157,376.664 94.839 C 376.253 94.522,375.751 94.091,375.550 93.881 C 375.348 93.671,375.136 93.500,375.078 93.500 C 375.021 93.500,374.761 93.294,374.501 93.042 C 374.241 92.790,373.782 92.396,373.481 92.167 C 373.180 91.938,372.721 91.544,372.461 91.292 C 372.201 91.040,371.953 90.833,371.909 90.833 C 371.866 90.833,371.625 90.651,371.374 90.428 C 370.591 89.735,370.174 89.383,369.456 88.807 C 369.074 88.501,368.497 88.018,368.173 87.735 C 367.849 87.451,367.415 87.078,367.208 86.906 C 366.593 86.392,366.739 85.993,367.876 85.086 C 368.448 84.629,368.954 84.215,369.000 84.165 C 369.046 84.116,369.533 83.703,370.082 83.246 C 370.632 82.790,371.164 82.342,371.265 82.250 C 371.576 81.967,372.839 80.922,374.667 79.434 C 375.629 78.650,376.604 77.833,376.833 77.616 C 377.063 77.400,377.662 76.890,378.167 76.482 C 379.148 75.688,379.446 75.443,380.647 74.442 C 381.070 74.089,381.604 73.644,381.833 73.454 C 382.063 73.263,382.694 72.708,383.237 72.220 C 383.779 71.733,384.289 71.333,384.370 71.333 C 384.450 71.333,384.681 71.162,384.883 70.953 C 385.085 70.743,385.700 70.200,386.250 69.744 C 386.800 69.289,387.275 68.860,387.306 68.792 C 387.336 68.723,387.424 68.667,387.500 68.667 C 387.576 68.667,387.964 68.359,388.361 67.984 C 388.758 67.608,389.271 67.177,389.500 67.025 C 389.990 66.702,390.540 66.246,391.147 65.664 C 391.387 65.433,391.921 64.984,392.333 64.666 C 392.746 64.348,393.166 64.012,393.267 63.919 C 393.611 63.603,395.051 62.417,395.348 62.207 C 395.510 62.092,396.042 61.624,396.530 61.167 C 397.018 60.710,397.467 60.335,397.529 60.335 C 397.591 60.334,397.866 60.108,398.141 59.833 C 398.416 59.558,398.713 59.333,398.801 59.333 C 399.293 59.333,399.079 58.612,398.298 57.631 C 396.803 55.754,396.424 55.291,395.953 54.767 C 395.698 54.483,395.363 54.044,395.209 53.792 C 394.870 53.239,394.891 53.239,394.176 53.799 M95.778 53.778 C 95.556 54.000,95.661 54.833,95.912 54.833 C 97.064 54.833,98.380 56.317,98.600 57.866 C 98.786 59.172,98.798 114.160,98.612 115.083 C 98.539 115.450,98.448 115.902,98.412 116.088 C 98.300 116.659,97.461 117.446,96.534 117.851 C 95.719 118.206,95.655 118.275,95.700 118.743 L 95.750 119.250 102.333 119.250 L 108.917 119.250 108.960 118.750 C 109.001 118.282,108.222 117.667,107.587 117.667 C 107.209 117.667,106.381 116.496,106.113 115.583 C 105.842 114.661,105.823 113.624,105.868 102.167 L 105.917 89.750 118.815 89.750 C 131.541 89.750,131.716 89.754,131.899 90.083 C 132.000 90.267,132.128 90.454,132.182 90.500 C 132.260 90.566,133.929 93.236,135.048 95.083 C 135.159 95.267,135.293 95.454,135.346 95.500 C 135.399 95.546,135.586 95.844,135.763 96.162 C 135.939 96.480,136.142 96.817,136.215 96.912 C 136.609 97.427,137.833 99.404,137.833 99.525 C 137.833 99.603,137.908 99.667,138.000 99.667 C 138.092 99.667,138.167 99.774,138.167 99.905 C 138.167 100.036,138.260 100.245,138.375 100.370 C 138.624 100.642,138.960 101.155,139.114 101.500 C 139.175 101.638,139.271 101.787,139.327 101.833 C 139.541 102.010,140.500 103.623,140.500 103.806 C 140.500 103.913,140.558 104.000,140.629 104.000 C 140.700 104.000,140.905 104.281,141.085 104.625 C 141.266 104.969,141.508 105.310,141.623 105.383 C 141.739 105.457,141.833 105.595,141.833 105.691 C 141.833 105.787,142.002 106.100,142.208 106.387 C 142.612 106.950,142.914 107.435,143.109 107.833 C 143.176 107.971,143.329 108.182,143.449 108.304 C 143.569 108.425,143.667 108.631,143.667 108.762 C 143.667 108.893,143.725 109.000,143.795 109.000 C 143.866 109.000,144.072 109.281,144.252 109.625 C 144.433 109.969,144.618 110.287,144.665 110.333 C 144.803 110.469,145.833 112.004,145.833 112.074 C 145.833 112.109,146.246 112.751,146.750 113.500 C 147.254 114.249,147.667 114.930,147.667 115.014 C 147.667 115.098,147.742 115.167,147.833 115.167 C 147.925 115.167,148.000 115.249,148.000 115.350 C 148.000 115.451,148.123 115.792,148.273 116.109 C 148.583 116.761,148.354 117.481,147.792 117.629 C 147.631 117.671,147.500 117.767,147.500 117.843 C 147.500 117.919,147.181 118.043,146.792 118.120 C 146.149 118.248,146.083 118.306,146.083 118.755 L 146.083 119.250 153.458 119.293 L 160.833 119.337 160.833 118.752 C 160.833 118.185,160.813 118.167,160.199 118.167 C 159.849 118.167,159.418 118.057,159.240 117.922 C 159.062 117.787,158.804 117.673,158.667 117.669 C 158.198 117.653,156.333 115.674,156.333 115.192 C 156.333 115.102,156.277 115.003,156.208 114.972 C 156.043 114.899,154.854 113.115,154.560 112.500 C 154.495 112.362,154.398 112.212,154.345 112.167 C 154.190 112.031,153.167 110.498,153.167 110.401 C 153.167 110.351,152.979 110.065,152.750 109.765 C 152.521 109.464,152.333 109.176,152.333 109.125 C 152.333 109.039,151.031 106.983,150.718 106.574 C 150.492 106.279,150.171 105.764,150.049 105.500 C 149.985 105.362,149.796 105.101,149.627 104.920 C 149.458 104.738,149.279 104.425,149.229 104.224 C 149.178 104.022,149.031 103.817,148.902 103.767 C 148.772 103.718,148.667 103.593,148.667 103.489 C 148.667 103.386,148.498 103.066,148.292 102.779 C 148.085 102.492,147.842 102.129,147.750 101.974 C 147.658 101.818,147.096 100.930,146.500 100.000 C 145.904 99.070,145.341 98.184,145.247 98.030 C 144.958 97.551,144.091 96.254,144.002 96.167 C 143.878 96.045,143.516 95.457,143.386 95.167 C 143.325 95.029,143.229 94.879,143.173 94.833 C 143.011 94.699,142.000 93.065,142.000 92.937 C 142.000 92.872,141.843 92.654,141.651 92.451 C 141.459 92.249,141.232 91.933,141.148 91.750 C 141.064 91.567,140.847 91.192,140.666 90.917 C 140.485 90.642,140.285 90.304,140.222 90.167 C 140.159 90.029,140.028 89.864,139.930 89.799 C 139.501 89.513,140.577 89.195,143.179 88.838 C 143.690 88.767,144.266 88.625,144.460 88.522 C 144.653 88.418,145.037 88.333,145.313 88.333 C 145.588 88.333,145.860 88.258,145.917 88.167 C 145.973 88.075,146.135 88.000,146.276 88.000 C 146.417 88.000,146.807 87.879,147.141 87.732 C 147.476 87.585,147.975 87.364,148.250 87.243 C 148.525 87.121,148.862 86.981,149.000 86.933 C 149.137 86.884,149.625 86.618,150.083 86.341 C 150.542 86.064,151.029 85.786,151.167 85.723 C 151.304 85.659,151.454 85.563,151.500 85.508 C 151.546 85.453,151.921 85.150,152.333 84.835 C 154.687 83.035,157.667 78.882,157.667 77.402 C 157.667 77.218,157.746 76.987,157.843 76.890 C 157.940 76.793,158.063 76.289,158.117 75.769 C 158.170 75.249,158.279 74.784,158.357 74.735 C 158.551 74.615,158.539 69.236,158.344 68.595 C 158.204 68.136,157.974 67.169,157.728 66.000 C 157.634 65.558,157.496 65.230,156.669 63.500 C 156.096 62.300,155.852 61.875,155.542 61.537 C 155.427 61.412,155.333 61.249,155.333 61.175 C 155.333 60.772,151.627 57.333,151.192 57.333 C 151.102 57.333,151.003 57.274,150.972 57.202 C 150.902 57.035,149.213 56.000,149.011 56.000 C 148.928 56.000,148.611 55.875,148.305 55.722 C 147.399 55.268,147.264 55.215,146.705 55.092 C 146.411 55.027,146.128 54.905,146.075 54.821 C 146.023 54.736,145.717 54.667,145.396 54.667 C 145.074 54.667,144.648 54.578,144.447 54.470 C 144.078 54.269,142.684 54.106,139.083 53.841 C 136.770 53.671,95.944 53.611,95.778 53.778 M136.917 59.582 C 138.383 59.718,139.962 59.830,140.425 59.831 C 140.888 59.832,141.338 59.901,141.425 59.983 C 141.512 60.065,141.883 60.168,142.250 60.210 C 143.233 60.325,144.964 60.996,146.697 61.932 C 147.519 62.377,149.114 64.088,149.684 65.136 C 150.573 66.773,150.652 66.946,150.846 67.703 C 151.326 69.564,151.421 74.656,150.981 74.928 C 150.900 74.978,150.833 75.210,150.833 75.442 C 150.833 75.675,150.732 76.064,150.609 76.308 C 150.485 76.551,150.243 77.050,150.070 77.417 C 149.415 78.811,147.567 80.997,147.042 80.999 C 146.927 81.000,146.833 81.067,146.833 81.150 C 146.833 81.345,144.937 82.332,144.548 82.339 C 144.384 82.342,144.104 82.454,143.926 82.589 C 143.749 82.723,143.407 82.833,143.168 82.833 C 142.929 82.833,142.662 82.901,142.575 82.983 C 142.025 83.503,139.735 83.572,122.833 83.578 L 105.917 83.583 105.871 71.917 C 105.823 59.682,105.826 59.570,106.292 59.448 C 107.140 59.227,134.367 59.346,136.917 59.582 " stroke="none" fill="#485d6a" fill-rule="evenodd"></path><path id="path1" d="M0.000 28.917 C 0.000 48.083,0.056 57.833,0.167 57.833 C 0.258 57.833,0.333 57.770,0.333 57.692 C 0.333 57.615,0.488 57.371,0.677 57.151 C 1.375 56.337,1.596 56.066,2.162 55.333 C 2.481 54.921,2.783 54.546,2.833 54.500 C 2.884 54.454,3.186 54.079,3.504 53.667 C 4.457 52.434,4.561 52.333,4.881 52.333 C 5.122 52.333,7.289 54.027,9.500 55.945 C 9.637 56.064,10.275 56.592,10.917 57.117 C 11.558 57.642,12.121 58.114,12.167 58.165 C 12.213 58.215,13.112 58.968,14.167 59.837 C 15.221 60.706,16.883 62.092,17.861 62.917 C 18.838 63.742,20.151 64.838,20.778 65.352 C 21.404 65.867,22.933 67.142,24.174 68.186 C 25.416 69.229,26.796 70.383,27.241 70.750 C 27.685 71.117,28.132 71.496,28.233 71.592 C 28.334 71.688,28.864 72.130,29.411 72.574 C 29.957 73.018,30.489 73.464,30.592 73.565 C 30.694 73.667,31.104 74.012,31.502 74.333 C 32.804 75.383,33.582 76.038,33.667 76.154 C 33.712 76.218,33.907 76.377,34.099 76.510 C 34.415 76.727,35.776 77.837,36.234 78.250 C 36.336 78.342,36.868 78.792,37.416 79.250 C 38.737 80.353,38.992 80.568,39.583 81.077 C 39.858 81.314,40.327 81.674,40.624 81.879 C 41.315 82.353,41.360 82.623,41.299 85.990 L 41.250 88.730 40.333 89.473 C 39.829 89.881,39.018 90.556,38.532 90.974 C 38.045 91.391,37.498 91.836,37.317 91.964 C 37.135 92.091,36.784 92.386,36.535 92.620 C 36.287 92.854,35.633 93.416,35.083 93.869 C 33.968 94.788,33.682 95.026,32.821 95.749 C 32.493 96.025,31.900 96.513,31.502 96.833 C 31.104 97.154,30.697 97.492,30.598 97.583 C 30.498 97.675,29.742 98.312,28.917 98.998 C 28.092 99.685,27.229 100.408,27.000 100.605 C 26.380 101.140,21.163 105.493,20.336 106.167 C 19.206 107.086,17.092 108.871,17.000 108.983 C 16.954 109.038,16.354 109.534,15.667 110.083 C 14.979 110.633,14.379 111.125,14.333 111.176 C 14.287 111.227,13.612 111.784,12.833 112.413 C 12.054 113.042,11.288 113.688,11.130 113.849 C 10.972 114.010,10.560 114.354,10.213 114.612 C 9.867 114.870,9.546 115.123,9.500 115.173 C 9.454 115.223,8.886 115.711,8.237 116.257 C 7.588 116.803,6.657 117.587,6.168 118.000 C 4.901 119.070,4.777 119.093,4.223 118.365 C 3.777 117.778,3.279 117.171,2.914 116.769 C 2.821 116.667,2.484 116.246,2.164 115.834 C 1.595 115.100,1.370 114.825,0.677 114.016 C 0.488 113.796,0.333 113.552,0.333 113.474 C 0.333 113.397,0.258 113.333,0.167 113.333 C 0.056 113.333,0.000 122.111,0.000 139.333 L 0.000 165.333 98.927 165.333 C 164.835 165.333,197.819 165.278,197.750 165.167 C 197.693 165.075,197.445 165.000,197.198 164.999 C 196.952 164.999,196.525 164.818,196.250 164.598 L 195.750 164.198 195.707 83.224 C 195.676 25.455,195.715 2.124,195.844 1.812 C 196.578 0.025,206.588 0.025,207.323 1.812 C 207.452 2.124,207.491 25.455,207.460 83.224 L 207.417 164.198 206.917 164.598 C 206.642 164.818,206.215 164.999,205.968 164.999 C 205.721 165.000,205.473 165.075,205.417 165.167 C 205.348 165.278,237.804 165.333,302.657 165.333 L 400.000 165.333 400.000 82.667 L 400.000 0.000 200.000 0.000 L 0.000 0.000 0.000 28.917 M241.529 50.276 C 241.696 50.428,241.833 50.660,241.833 50.792 C 241.833 51.079,242.315 51.957,242.672 52.322 C 243.454 53.123,241.933 53.083,271.900 53.083 L 299.917 53.083 300.500 52.736 C 301.159 52.344,301.929 51.309,302.065 50.629 C 302.172 50.099,302.802 49.866,303.482 50.105 L 303.917 50.258 303.960 56.401 C 303.992 60.797,303.950 62.609,303.815 62.772 C 303.378 63.298,302.000 62.890,302.000 62.235 C 302.000 61.782,301.195 60.716,300.555 60.322 L 299.917 59.929 290.250 59.864 C 284.933 59.828,279.515 59.852,278.208 59.917 L 275.833 60.035 275.833 87.610 C 275.833 114.459,275.842 115.203,276.154 115.888 C 276.547 116.752,276.951 117.129,278.059 117.667 C 278.984 118.116,279.245 118.730,278.836 119.494 C 278.655 119.833,278.568 119.836,271.785 119.794 L 264.917 119.750 264.867 118.883 L 264.816 118.016 265.566 117.675 C 265.978 117.487,266.360 117.333,266.414 117.333 C 266.577 117.333,267.096 116.786,267.434 116.257 C 267.740 115.780,267.751 114.919,267.795 87.900 L 267.841 60.036 267.129 59.954 C 264.847 59.693,243.906 59.922,243.372 60.214 C 242.784 60.535,241.833 61.724,241.833 62.137 C 241.833 62.884,240.469 63.316,239.979 62.724 C 239.636 62.312,239.601 50.918,239.940 50.375 C 240.225 49.919,241.076 49.866,241.529 50.276 M33.167 52.835 C 33.212 52.882,34.337 53.825,35.667 54.930 C 36.996 56.036,38.196 57.050,38.333 57.184 C 38.471 57.318,39.033 57.772,39.583 58.193 C 40.133 58.614,40.771 59.139,41.000 59.360 C 41.229 59.581,41.829 60.093,42.333 60.498 C 42.837 60.903,43.592 61.538,44.009 61.909 C 44.426 62.280,45.511 63.183,46.418 63.917 C 47.326 64.650,48.413 65.550,48.834 65.917 C 49.255 66.283,49.931 66.846,50.336 67.167 C 50.985 67.682,52.270 68.770,52.500 69.000 C 52.546 69.046,52.957 69.383,53.415 69.750 C 53.872 70.117,54.364 70.529,54.509 70.667 C 54.653 70.804,55.104 71.177,55.511 71.494 C 55.917 71.812,56.776 72.525,57.419 73.078 C 58.062 73.631,58.955 74.383,59.402 74.750 C 59.850 75.117,60.299 75.492,60.400 75.583 C 60.501 75.675,60.921 76.026,61.334 76.364 C 61.746 76.701,62.308 77.174,62.583 77.415 C 63.389 78.120,63.707 78.383,64.501 78.994 C 64.913 79.312,65.401 79.724,65.586 79.911 C 65.770 80.097,66.183 80.447,66.502 80.688 C 66.822 80.929,67.346 81.359,67.667 81.644 C 67.987 81.928,68.294 82.163,68.348 82.164 C 69.028 82.182,69.028 88.984,68.348 89.003 C 68.294 89.004,67.987 89.238,67.667 89.523 C 67.346 89.807,66.821 90.237,66.500 90.478 C 66.179 90.718,65.879 90.956,65.833 91.006 C 65.787 91.057,65.075 91.654,64.250 92.333 C 63.425 93.013,62.712 93.619,62.667 93.681 C 62.584 93.793,61.840 94.419,60.537 95.473 C 60.159 95.780,59.677 96.182,59.466 96.367 C 59.256 96.553,58.821 96.902,58.500 97.143 C 58.179 97.384,57.879 97.627,57.833 97.684 C 57.788 97.740,57.150 98.287,56.417 98.900 C 55.683 99.513,54.933 100.147,54.750 100.309 C 54.567 100.471,53.779 101.121,53.000 101.753 C 52.221 102.386,51.503 102.982,51.405 103.077 C 51.306 103.172,50.863 103.550,50.419 103.917 C 49.975 104.283,48.627 105.408,47.424 106.417 C 46.220 107.425,44.871 108.550,44.426 108.917 C 43.981 109.283,43.535 109.660,43.434 109.754 C 43.333 109.847,42.688 110.386,42.000 110.950 C 41.313 111.515,40.548 112.151,40.301 112.363 C 40.054 112.576,39.609 112.938,39.313 113.167 C 39.017 113.396,38.693 113.658,38.594 113.750 C 38.116 114.191,36.998 115.142,36.342 115.667 C 35.940 115.987,35.530 116.326,35.431 116.419 C 35.331 116.512,34.915 116.850,34.505 117.169 C 34.095 117.489,33.458 118.030,33.088 118.373 C 32.235 119.164,32.348 119.195,31.216 117.862 C 27.000 112.897,27.087 113.077,28.377 111.974 C 28.949 111.485,29.454 111.046,29.500 110.997 C 29.546 110.948,29.921 110.649,30.333 110.333 C 30.746 110.017,31.121 109.718,31.167 109.667 C 31.212 109.617,31.699 109.203,32.249 108.746 C 32.798 108.290,33.332 107.842,33.435 107.750 C 33.728 107.490,34.241 107.060,36.833 104.905 C 38.162 103.799,39.362 102.785,39.500 102.651 C 39.637 102.516,40.200 102.060,40.750 101.636 C 41.300 101.213,41.900 100.726,42.083 100.554 C 42.267 100.383,43.092 99.683,43.917 98.998 C 44.742 98.314,45.604 97.593,45.833 97.395 C 46.170 97.106,48.144 95.452,50.251 93.696 C 51.662 92.520,52.610 91.725,52.768 91.583 C 53.178 91.219,53.787 90.722,54.501 90.171 C 54.913 89.853,55.288 89.551,55.333 89.502 C 55.379 89.453,55.979 88.939,56.667 88.361 C 57.354 87.782,58.356 86.926,58.893 86.459 L 59.868 85.609 59.143 84.929 C 58.743 84.554,58.047 83.951,57.595 83.589 C 57.143 83.226,56.607 82.776,56.404 82.589 C 55.839 82.071,55.321 81.640,54.499 81.003 C 54.087 80.683,53.675 80.337,53.583 80.232 C 53.492 80.128,52.967 79.685,52.417 79.248 C 51.867 78.810,51.004 78.097,50.500 77.663 C 49.270 76.603,42.841 71.228,40.937 69.667 C 40.098 68.979,39.263 68.289,39.081 68.134 C 38.602 67.725,35.376 65.032,34.426 64.250 C 33.981 63.883,33.535 63.507,33.434 63.413 C 33.333 63.319,33.025 63.070,32.750 62.858 C 32.475 62.646,31.988 62.234,31.667 61.943 C 31.346 61.652,30.746 61.153,30.333 60.834 C 29.921 60.515,29.502 60.179,29.403 60.086 C 29.303 59.993,28.834 59.582,28.361 59.172 C 27.127 58.105,26.928 58.526,31.073 53.417 C 32.143 52.097,32.380 52.031,33.167 52.835 M368.692 54.292 C 369.267 55.002,369.904 55.771,370.107 56.000 C 370.746 56.722,372.329 58.746,372.331 58.844 C 372.336 59.043,370.720 60.499,369.765 61.157 C 369.574 61.289,369.379 61.442,369.333 61.497 C 369.259 61.586,367.297 63.255,366.417 63.979 C 364.948 65.186,363.068 66.752,363.000 66.826 C 362.926 66.907,361.486 68.118,360.585 68.858 C 359.736 69.555,358.553 70.546,358.250 70.813 C 358.067 70.975,357.504 71.441,357.000 71.850 C 356.496 72.258,355.896 72.752,355.667 72.948 C 355.043 73.479,348.857 78.650,347.926 79.417 C 347.481 79.783,347.035 80.162,346.934 80.259 C 346.833 80.355,346.300 80.796,345.750 81.238 C 345.200 81.680,344.488 82.277,344.167 82.564 C 343.846 82.852,343.246 83.347,342.833 83.665 C 342.421 83.984,341.821 84.490,341.500 84.791 C 341.179 85.092,340.673 85.505,340.376 85.710 C 339.687 86.186,339.696 86.332,340.455 86.928 C 341.003 87.360,342.272 88.438,342.500 88.667 C 342.546 88.713,343.146 89.200,343.833 89.750 C 344.521 90.300,345.121 90.787,345.167 90.833 C 345.212 90.879,345.700 91.290,346.250 91.746 C 346.800 92.203,347.287 92.617,347.333 92.667 C 347.379 92.717,347.866 93.131,348.416 93.587 C 348.965 94.043,349.496 94.492,349.596 94.583 C 349.697 94.675,350.106 95.013,350.507 95.333 C 351.350 96.008,353.544 97.858,353.667 97.997 C 353.712 98.049,354.087 98.351,354.500 98.667 C 354.912 98.983,355.287 99.282,355.333 99.333 C 355.379 99.383,355.866 99.797,356.416 100.254 C 356.965 100.710,357.496 101.158,357.596 101.250 C 357.697 101.342,358.105 101.679,358.504 102.000 C 359.158 102.526,361.301 104.329,361.770 104.749 C 361.873 104.841,362.693 105.517,363.592 106.250 C 364.492 106.983,365.570 107.887,365.989 108.258 C 366.407 108.629,367.387 109.450,368.167 110.082 C 368.946 110.713,369.621 111.272,369.667 111.324 C 369.712 111.375,370.087 111.690,370.500 112.025 C 372.445 113.601,372.482 113.655,372.016 114.207 C 371.841 114.414,371.307 115.071,370.830 115.667 C 367.147 120.262,367.599 120.056,365.417 118.135 C 365.233 117.974,364.033 116.969,362.750 115.903 C 361.467 114.837,360.229 113.803,360.000 113.605 C 359.771 113.407,358.908 112.688,358.083 112.005 C 357.258 111.323,356.546 110.722,356.500 110.670 C 356.454 110.617,356.079 110.316,355.667 110.000 C 355.254 109.684,354.879 109.383,354.833 109.331 C 354.787 109.279,354.188 108.763,353.500 108.184 C 352.813 107.606,351.912 106.847,351.500 106.498 C 351.087 106.148,350.262 105.466,349.667 104.982 C 349.071 104.497,348.546 104.060,348.500 104.009 C 348.454 103.958,347.967 103.542,347.418 103.083 C 345.747 101.689,345.629 101.589,345.436 101.414 C 345.334 101.321,344.912 100.986,344.500 100.669 C 344.087 100.351,343.712 100.051,343.667 100.001 C 343.621 99.950,343.134 99.536,342.586 99.080 C 342.037 98.623,341.325 98.016,341.002 97.729 C 340.680 97.442,339.967 96.846,339.417 96.404 C 338.867 95.962,338.335 95.522,338.236 95.425 C 338.136 95.329,337.726 94.987,337.325 94.667 C 336.924 94.346,336.330 93.852,336.006 93.568 C 335.682 93.285,335.229 92.900,335.000 92.713 C 334.771 92.526,333.777 91.687,332.792 90.848 L 331.000 89.323 331.000 86.281 L 331.000 83.239 331.857 82.495 C 332.329 82.085,332.872 81.610,333.066 81.439 C 333.259 81.269,333.679 80.932,334.000 80.690 C 334.321 80.449,334.621 80.204,334.667 80.146 C 334.754 80.035,335.598 79.328,336.831 78.333 C 337.229 78.012,337.861 77.479,338.235 77.148 C 338.610 76.817,339.367 76.185,339.917 75.743 C 341.338 74.600,342.488 73.645,342.978 73.200 C 343.210 72.989,343.926 72.389,344.569 71.866 C 345.212 71.344,345.854 70.804,345.996 70.667 C 346.138 70.529,346.627 70.117,347.083 69.750 C 347.538 69.383,348.138 68.887,348.414 68.647 C 348.690 68.407,349.929 67.375,351.167 66.353 C 352.404 65.331,353.567 64.363,353.750 64.201 C 353.933 64.040,354.496 63.576,355.000 63.170 C 355.504 62.764,356.258 62.128,356.676 61.758 C 357.093 61.387,358.143 60.508,359.009 59.806 C 359.875 59.103,360.771 58.368,361.000 58.171 C 361.229 57.974,361.604 57.656,361.833 57.463 C 362.063 57.271,362.515 56.881,362.839 56.598 C 363.163 56.315,363.741 55.833,364.123 55.527 C 364.505 55.220,364.990 54.818,365.200 54.633 C 365.411 54.447,365.846 54.098,366.167 53.857 C 366.488 53.616,366.810 53.324,366.883 53.209 C 367.183 52.739,367.671 53.032,368.692 54.292 M396.329 54.595 C 399.400 58.290,399.722 58.752,399.506 59.156 C 399.405 59.345,399.267 59.500,399.201 59.500 C 399.134 59.500,398.893 59.669,398.665 59.876 C 398.437 60.083,397.801 60.627,397.251 61.085 C 396.702 61.542,396.169 61.992,396.067 62.083 C 395.966 62.175,395.519 62.550,395.074 62.917 C 393.429 64.272,390.740 66.520,390.417 66.809 C 390.233 66.973,389.633 67.469,389.083 67.911 C 388.533 68.353,387.708 69.037,387.250 69.430 C 386.792 69.824,384.917 71.394,383.083 72.921 C 379.532 75.877,378.466 76.767,377.995 77.167 C 377.833 77.304,377.343 77.717,376.907 78.083 C 376.471 78.450,376.033 78.826,375.932 78.919 C 375.832 79.012,375.412 79.348,375.000 79.665 C 374.587 79.982,374.212 80.282,374.167 80.333 C 374.121 80.383,373.634 80.797,373.084 81.254 C 372.535 81.710,372.001 82.158,371.898 82.250 C 371.600 82.516,371.021 83.000,369.417 84.326 C 368.592 85.008,367.750 85.741,367.546 85.954 L 367.175 86.342 367.796 86.890 C 368.137 87.191,369.092 87.993,369.917 88.673 C 370.742 89.352,371.498 89.984,371.598 90.079 C 371.697 90.173,372.107 90.513,372.508 90.833 C 372.910 91.154,373.503 91.648,373.827 91.932 C 374.151 92.215,374.604 92.602,374.833 92.792 C 375.063 92.982,375.777 93.576,376.422 94.111 C 377.067 94.646,377.704 95.178,377.839 95.295 C 378.130 95.546,378.605 95.938,379.535 96.693 C 379.913 96.999,380.303 97.325,380.404 97.417 C 380.576 97.574,382.193 98.932,382.915 99.525 C 383.099 99.676,383.596 100.089,384.020 100.442 C 384.443 100.795,384.931 101.196,385.105 101.333 C 385.675 101.786,387.396 103.245,387.661 103.500 C 387.804 103.638,388.295 104.050,388.752 104.417 C 389.209 104.783,389.664 105.158,389.764 105.250 C 389.864 105.342,390.270 105.679,390.667 106.000 C 391.633 106.781,394.713 109.349,395.750 110.238 C 396.208 110.631,397.033 111.314,397.583 111.757 C 398.904 112.820,399.667 113.539,399.667 113.721 C 399.667 113.886,398.548 115.349,397.748 116.231 C 397.655 116.333,397.317 116.754,396.998 117.166 C 394.684 120.151,395.085 120.065,392.750 118.078 C 392.017 117.454,391.042 116.649,390.583 116.288 C 390.125 115.928,389.488 115.394,389.167 115.102 C 388.846 114.810,388.425 114.461,388.231 114.327 C 388.038 114.193,387.505 113.746,387.047 113.333 C 386.025 112.413,385.627 112.080,384.666 111.338 C 384.254 111.019,383.879 110.716,383.833 110.664 C 383.724 110.539,380.935 108.200,380.268 107.674 C 379.778 107.287,377.679 105.512,377.500 105.333 C 377.454 105.287,377.043 104.950,376.585 104.583 C 376.128 104.217,375.639 103.804,375.499 103.667 C 375.359 103.529,374.908 103.154,374.498 102.833 C 373.750 102.249,373.119 101.731,372.769 101.415 C 372.667 101.322,372.134 100.872,371.584 100.415 C 371.035 99.957,370.504 99.508,370.404 99.417 C 370.303 99.325,369.893 98.987,369.492 98.667 C 368.800 98.114,367.513 97.018,367.333 96.829 C 367.287 96.781,366.912 96.482,366.500 96.165 C 366.087 95.848,365.666 95.512,365.564 95.419 C 365.461 95.326,365.198 95.100,364.979 94.917 C 364.760 94.733,364.132 94.208,363.583 93.750 C 363.034 93.292,362.502 92.842,362.401 92.750 C 362.299 92.658,361.851 92.283,361.405 91.917 C 360.958 91.550,360.085 90.815,359.463 90.284 L 358.333 89.318 358.333 86.279 C 358.333 83.584,358.366 83.213,358.626 82.995 C 358.788 82.860,359.368 82.375,359.917 81.917 C 360.466 81.458,360.999 81.008,361.102 80.917 C 361.205 80.825,361.470 80.600,361.690 80.417 C 361.911 80.233,362.765 79.524,363.587 78.840 C 364.410 78.157,365.121 77.555,365.167 77.503 C 365.212 77.451,365.587 77.149,366.000 76.833 C 366.412 76.517,366.787 76.219,366.833 76.171 C 367.013 75.982,368.300 74.886,368.992 74.333 C 369.393 74.012,369.803 73.675,369.902 73.583 C 370.002 73.492,370.758 72.855,371.583 72.169 C 372.408 71.482,373.271 70.758,373.500 70.560 C 373.729 70.361,374.479 69.735,375.167 69.168 C 377.024 67.637,377.197 67.492,377.839 66.932 C 378.163 66.648,378.759 66.154,379.163 65.833 C 379.768 65.352,381.370 64.013,385.943 60.164 C 386.142 59.998,386.739 59.507,387.271 59.074 C 387.803 58.640,388.325 58.203,388.430 58.101 C 388.732 57.811,389.353 57.300,390.167 56.671 C 390.579 56.353,390.954 56.053,391.000 56.004 C 391.172 55.823,392.454 54.729,393.123 54.193 C 393.505 53.887,393.985 53.491,394.191 53.312 C 394.752 52.826,394.964 52.953,396.329 54.595 M140.221 53.471 C 141.581 53.577,142.769 53.711,142.863 53.768 C 142.957 53.826,143.457 53.935,143.975 54.009 C 145.143 54.177,146.598 54.542,146.764 54.708 C 146.833 54.777,147.004 54.833,147.145 54.833 C 147.497 54.833,150.461 56.279,151.114 56.769 C 151.406 56.988,151.686 57.167,151.738 57.167 C 151.914 57.167,152.752 57.908,154.088 59.246 C 155.569 60.729,156.730 62.491,157.549 64.500 C 157.679 64.821,157.883 65.308,158.001 65.583 C 158.120 65.858,158.276 66.383,158.348 66.750 C 158.421 67.117,158.565 67.792,158.669 68.250 C 158.914 69.337,158.911 74.202,158.664 75.167 C 158.559 75.579,158.435 76.142,158.389 76.417 C 158.343 76.692,158.199 77.153,158.069 77.442 C 157.940 77.731,157.833 78.037,157.833 78.124 C 157.833 80.038,151.607 86.833,149.852 86.833 C 149.750 86.833,149.667 86.908,149.667 87.000 C 149.667 87.092,149.579 87.167,149.472 87.167 C 149.364 87.167,148.820 87.381,148.263 87.643 C 146.478 88.483,142.734 89.500,141.426 89.500 C 140.668 89.500,140.199 89.875,140.624 90.142 C 140.719 90.201,140.959 90.550,141.157 90.917 C 141.625 91.783,141.894 92.230,142.010 92.333 C 142.061 92.379,142.474 93.004,142.927 93.722 C 143.379 94.440,143.880 95.227,144.040 95.472 C 144.199 95.716,144.381 96.029,144.444 96.167 C 144.507 96.304,144.603 96.454,144.656 96.500 C 144.751 96.581,145.574 97.801,145.914 98.363 C 146.138 98.734,148.170 101.910,148.544 102.474 C 148.705 102.717,148.883 103.048,148.938 103.208 C 148.994 103.369,149.105 103.500,149.186 103.500 C 149.267 103.500,149.333 103.583,149.333 103.684 C 149.333 103.786,149.558 104.153,149.833 104.500 C 150.108 104.847,150.333 105.208,150.333 105.302 C 150.333 105.396,150.394 105.497,150.468 105.528 C 150.577 105.573,151.710 107.311,152.887 109.238 C 153.333 109.967,154.829 112.262,154.959 112.417 C 155.037 112.508,155.156 112.696,155.223 112.833 C 155.662 113.723,157.306 116.128,157.778 116.569 C 158.389 117.140,159.849 117.833,160.448 117.836 C 161.303 117.841,161.683 118.496,161.346 119.383 L 161.174 119.837 153.462 119.793 L 145.750 119.750 145.750 118.833 C 145.750 117.947,145.766 117.914,146.250 117.824 C 147.495 117.592,147.833 117.344,147.833 116.664 C 147.833 116.118,147.458 115.103,147.157 114.833 C 147.078 114.763,145.803 112.783,145.245 111.865 C 145.151 111.710,144.704 111.021,144.252 110.333 C 143.800 109.646,143.288 108.821,143.114 108.500 C 142.940 108.179,142.618 107.678,142.399 107.386 C 142.179 107.094,142.000 106.806,142.000 106.745 C 142.000 106.684,141.831 106.400,141.625 106.113 C 141.419 105.825,141.175 105.464,141.083 105.309 C 140.992 105.154,140.518 104.403,140.032 103.639 C 139.545 102.875,139.057 102.100,138.948 101.917 C 138.839 101.733,138.707 101.546,138.655 101.500 C 138.602 101.454,138.505 101.304,138.440 101.167 C 138.282 100.837,137.992 100.356,137.583 99.746 C 136.965 98.823,136.824 98.584,136.726 98.292 C 136.672 98.131,136.579 98.000,136.518 98.000 C 136.458 98.000,136.264 97.719,136.086 97.375 C 135.908 97.031,135.553 96.477,135.298 96.143 C 135.042 95.809,134.833 95.459,134.833 95.365 C 134.833 95.271,134.776 95.169,134.705 95.139 C 134.635 95.108,133.867 93.940,132.999 92.542 L 131.420 90.000 118.871 90.000 L 106.322 90.000 106.369 102.875 L 106.417 115.750 106.798 116.359 C 107.050 116.760,107.504 117.128,108.132 117.440 C 109.353 118.047,109.781 118.985,109.133 119.633 C 108.813 119.954,95.610 119.917,95.343 119.595 C 94.845 118.995,95.196 118.110,96.108 117.667 C 97.174 117.149,97.603 116.767,97.966 116.009 C 98.432 115.038,98.401 57.908,97.935 56.873 C 97.599 56.129,97.223 55.815,95.958 55.221 C 95.123 54.828,94.830 53.903,95.370 53.363 C 95.646 53.087,136.545 53.186,140.221 53.471 M0.000 85.583 C 0.000 100.479,0.056 112.665,0.125 112.663 C 0.194 112.661,0.522 112.417,0.854 112.121 C 1.593 111.463,1.854 111.243,3.750 109.670 C 4.575 108.986,5.350 108.329,5.473 108.211 C 5.595 108.092,5.970 107.790,6.306 107.540 C 6.642 107.290,6.954 107.037,7.000 106.979 C 7.084 106.872,7.881 106.204,9.124 105.197 C 9.500 104.893,10.019 104.457,10.279 104.228 C 10.538 103.998,11.087 103.534,11.500 103.197 C 11.912 102.859,12.332 102.508,12.432 102.417 C 12.533 102.325,12.945 101.976,13.349 101.640 C 13.753 101.305,15.058 100.216,16.250 99.220 C 17.442 98.224,19.054 96.890,19.833 96.255 C 20.612 95.620,21.438 94.934,21.667 94.730 C 22.015 94.420,24.916 91.987,26.085 91.025 C 26.721 90.502,28.415 89.083,28.602 88.917 C 29.427 88.184,30.596 87.223,30.816 87.096 C 30.963 87.011,31.406 86.634,31.801 86.257 L 32.520 85.573 31.801 84.909 C 31.406 84.544,30.746 83.985,30.333 83.668 C 29.921 83.351,29.546 83.051,29.500 83.001 C 29.454 82.950,28.967 82.536,28.418 82.080 C 27.868 81.623,27.337 81.175,27.237 81.083 C 27.137 80.992,26.728 80.654,26.329 80.333 C 25.930 80.012,24.352 78.700,22.822 77.417 C 21.292 76.133,19.075 74.282,17.895 73.304 C 16.715 72.325,15.599 71.387,15.415 71.220 C 15.231 71.053,14.706 70.619,14.248 70.256 C 13.791 69.892,13.379 69.553,13.333 69.502 C 13.287 69.451,12.800 69.038,12.250 68.584 C 11.700 68.130,10.948 67.494,10.579 67.171 C 10.210 66.848,9.578 66.321,9.175 66.000 C 8.517 65.477,7.946 65.005,6.917 64.133 C 6.334 63.640,3.100 60.943,2.261 60.250 C 1.816 59.883,1.182 59.341,0.851 59.046 C 0.521 58.750,0.194 58.506,0.125 58.504 C 0.056 58.502,0.000 70.688,0.000 85.583 M106.874 59.954 L 106.331 60.021 106.374 71.719 L 106.417 83.417 120.500 83.469 C 132.384 83.512,135.091 83.478,137.833 83.250 C 140.794 83.003,141.498 82.886,143.583 82.295 C 144.463 82.046,146.310 81.169,146.833 80.751 C 147.573 80.161,149.024 78.625,149.180 78.266 C 149.264 78.074,149.401 77.804,149.485 77.667 C 151.108 75.004,151.463 70.197,150.254 67.250 C 149.579 65.603,148.746 64.210,148.010 63.499 C 147.042 62.562,145.055 61.333,144.509 61.333 C 144.357 61.333,144.153 61.253,144.054 61.154 C 143.520 60.620,140.327 60.149,136.250 60.002 C 132.557 59.869,107.884 59.829,106.874 59.954 " stroke="none" fill="#fbfbfb" fill-rule="evenodd"></path></g></svg>